<svg width="50" height="50" viewBox="0 0 50 50" fill="none" xmlns="http://www.w3.org/2000/svg">
<path d="M25 50C18.3696 50 12.0107 47.3661 7.32233 42.6777C2.63392 37.9893 2.43209e-06 31.6304 2.72191e-06 25C3.01174e-06 18.3696 2.63392 12.0107 7.32233 7.32233C12.0107 2.63392 18.3696 -3.81445e-07 25 -1.09278e-06L25 3.07137C19.1842 3.07137 13.6065 5.3817 9.49412 9.49412C5.38171 13.6065 3.07138 19.1842 3.07138 25C3.07138 30.8158 5.3817 36.3935 9.49412 40.5059C13.6065 44.6183 19.1842 46.9286 25 46.9286L25 50Z" fill="#444444"/>
<path opacity="0.15" d="M25 2.72191e-06C31.6304 2.43209e-06 37.9893 2.63392 42.6777 7.32233C47.3661 12.0107 50 18.3696 50 25C50 31.6304 47.3661 37.9893 42.6777 42.6777C37.9893 47.3661 31.6304 50 25 50L25 46.9286C30.8158 46.9286 36.3935 44.6183 40.5059 40.5059C44.6183 36.3935 46.9286 30.8158 46.9286 25C46.9286 19.1842 44.6183 13.6065 40.5059 9.49412C36.3935 5.3817 30.8158 3.07138 25 3.07138L25 2.72191e-06Z" fill="#444444"/>
<path d="M28 19L22 25L28 31" stroke="#444444" stroke-width="1.8" stroke-linecap="round" stroke-linejoin="round"/>
</svg>
