<svg width="13" height="13" viewBox="0 0 13 13" fill="none" xmlns="http://www.w3.org/2000/svg">
<path d="M3.327 8.10852L0.797774 5.58161C0.678767 5.46284 0.591159 5.31639 0.542823 5.15542C0.494487 4.99444 0.486937 4.824 0.520851 4.65939C0.553709 4.4784 0.634348 4.30945 0.754434 4.17002C0.874521 4.03059 1.0297 3.92573 1.20393 3.86627L11.1085 0.564696C11.2941 0.495792 11.4956 0.481575 11.689 0.523736C11.8825 0.565897 12.0597 0.662661 12.1997 0.802528C12.3397 0.942395 12.4366 1.11948 12.4788 1.31274C12.521 1.50599 12.5067 1.70729 12.4378 1.8927L9.13316 11.7882C9.07759 11.9565 8.97962 12.1076 8.84868 12.2272C8.71774 12.3467 8.55822 12.4305 8.38547 12.4707C8.21378 12.5128 8.03405 12.5095 7.86406 12.461C7.69407 12.4124 7.5397 12.3204 7.41624 12.194L5.40393 10.1928L3.24393 11.3086L3.327 8.10852ZM3.327 8.10852L12.1424 0.767586" stroke="white" stroke-linecap="round" stroke-linejoin="round"/>
</svg>
