<svg width="99" height="15" viewBox="0 0 99 15" fill="none" xmlns="http://www.w3.org/2000/svg">
<path d="M14.9495 5.62468C14.8278 5.23257 14.5052 4.94851 14.1165 4.88902L10.1797 4.28942L8.41895 0.554107C8.07149 -0.184702 6.91807 -0.184702 6.5706 0.554107L4.80987 4.28942L0.882424 4.88902C0.493839 4.94835 0.171204 5.23356 0.0505323 5.62468C-0.0710884 6.01679 0.0309211 6.44569 0.312436 6.7319L3.15969 9.63228L2.48864 13.7372C2.42269 14.1422 2.58148 14.5527 2.89889 14.7947C3.21741 15.0356 3.63795 15.067 3.98541 14.8757L7.49438 12.9367L11.0138 14.8757C11.1644 14.9589 11.3293 15 11.4932 15C11.7065 15 11.9199 14.9309 12.1014 14.7948C12.419 14.5517 12.5776 14.1424 12.5117 13.7373L11.8406 9.63245L14.6879 6.73206C14.9691 6.44668 15.0711 6.01579 14.9495 5.62468Z" fill="#FFBC00"/>
<path d="M56.9495 5.62468C56.8278 5.23257 56.5052 4.94851 56.1165 4.88902L52.1797 4.28942L50.419 0.554107C50.0715 -0.184702 48.9181 -0.184702 48.5706 0.554107L46.8099 4.28942L42.8824 4.88902C42.4938 4.94835 42.1712 5.23356 42.0505 5.62468C41.9289 6.01679 42.0309 6.44569 42.3124 6.7319L45.1597 9.63228L44.4886 13.7372C44.4227 14.1422 44.5815 14.5527 44.8989 14.7947C45.2174 15.0356 45.6379 15.067 45.9854 14.8757L49.4944 12.9367L53.0138 14.8757C53.1644 14.9589 53.3293 15 53.4932 15C53.7065 15 53.9199 14.9309 54.1014 14.7948C54.419 14.5517 54.5776 14.1424 54.5117 13.7373L53.8406 9.63245L56.6879 6.73206C56.9691 6.44668 57.0711 6.01579 56.9495 5.62468Z" fill="#FFBC00"/>
<path d="M35.9495 5.62468C35.8278 5.23257 35.5052 4.94851 35.1165 4.88902L31.1797 4.28942L29.419 0.554107C29.0715 -0.184702 27.9181 -0.184702 27.5706 0.554107L25.8099 4.28942L21.8824 4.88902C21.4938 4.94835 21.1712 5.23356 21.0505 5.62468C20.9289 6.01679 21.0309 6.44569 21.3124 6.7319L24.1597 9.63228L23.4886 13.7372C23.4227 14.1422 23.5815 14.5527 23.8989 14.7947C24.2174 15.0356 24.6379 15.067 24.9854 14.8757L28.4944 12.9367L32.0138 14.8757C32.1644 14.9589 32.3293 15 32.4932 15C32.7065 15 32.9199 14.9309 33.1014 14.7948C33.419 14.5517 33.5776 14.1424 33.5117 13.7373L32.8406 9.63245L35.6879 6.73206C35.9691 6.44668 36.0711 6.01579 35.9495 5.62468Z" fill="#FFBC00"/>
<path d="M77.9495 5.62468C77.8278 5.23257 77.5052 4.94851 77.1165 4.88902L73.1797 4.28942L71.419 0.554107C71.0715 -0.184702 69.9181 -0.184702 69.5706 0.554107L67.8099 4.28942L63.8824 4.88902C63.4938 4.94835 63.1712 5.23356 63.0505 5.62468C62.9289 6.01679 63.0309 6.44569 63.3124 6.7319L66.1597 9.63228L65.4886 13.7372C65.4227 14.1422 65.5815 14.5527 65.8989 14.7947C66.2174 15.0356 66.6379 15.067 66.9854 14.8757L70.4944 12.9367L74.0138 14.8757C74.1644 14.9589 74.3293 15 74.4932 15C74.7065 15 74.9199 14.9309 75.1014 14.7948C75.419 14.5517 75.5776 14.1424 75.5117 13.7373L74.8406 9.63245L77.6879 6.73206C77.9691 6.44668 78.0711 6.01579 77.9495 5.62468Z" fill="#FFBC00"/>
<path d="M98.9495 5.62468C98.8278 5.23257 98.5052 4.94851 98.1165 4.88902L94.1797 4.28942L92.419 0.554107C92.0715 -0.184702 90.9181 -0.184702 90.5706 0.554107L88.8099 4.28942L84.8824 4.88902C84.4938 4.94835 84.1712 5.23356 84.0505 5.62468C83.9289 6.01679 84.0309 6.44569 84.3124 6.7319L87.1597 9.63228L86.4886 13.7372C86.4227 14.1422 86.5815 14.5527 86.8989 14.7947C87.2174 15.0356 87.6379 15.067 87.9854 14.8757L91.4944 12.9367L95.0138 14.8757C95.1644 14.9589 95.3293 15 95.4932 15C95.7065 15 95.9199 14.9309 96.1014 14.7948C96.419 14.5517 96.5776 14.1424 96.5117 13.7373L95.8406 9.63245L98.6879 6.73206C98.9691 6.44668 99.0711 6.01579 98.9495 5.62468Z" fill="#FFBC00"/>
</svg>
