<svg width="99" height="104" viewBox="0 0 99 104" fill="none" xmlns="http://www.w3.org/2000/svg">
<path d="M21.6527 30.8801C22.9221 28.9635 24.3933 27.1828 26.042 25.5673C38.9979 12.8674 60.003 12.8674 72.9587 25.5673C85.9144 38.2673 85.9144 58.858 72.9587 71.558C60.003 84.2579 38.9979 84.2579 26.042 71.558C19.4762 65.1218 16.2398 56.6589 16.3296 48.2239" stroke="#FE8B6F" stroke-width="4" stroke-miterlimit="22.926" stroke-linecap="round" stroke-linejoin="round"/>
<path d="M67.0942 31.3163C76.811 40.8412 76.811 56.2843 67.0942 65.8092C57.3774 75.3342 41.6235 75.3342 31.9067 65.8092C22.19 56.2843 22.19 40.8412 31.9067 31.3163C41.6235 21.7913 57.3774 21.7913 67.0942 31.3163Z" stroke="#FE8B6F" stroke-width="4" stroke-miterlimit="22.926" stroke-linecap="round" stroke-linejoin="round"/>
<path d="M58.2971 39.9397L49.5005 48.5627L55.3646 54.3112" stroke="#FE8B6F" stroke-width="4" stroke-miterlimit="22.926" stroke-linecap="round" stroke-linejoin="round"/>
<path d="M72.5646 25.9537L64.1617 34.1906" stroke="#FE8B6F" stroke-width="4" stroke-miterlimit="22.926" stroke-linecap="round" stroke-linejoin="round"/>
<path d="M55.8338 25.3929L54.8667 28.9301" stroke="#FE8B6F" stroke-width="4" stroke-miterlimit="22.926" stroke-linecap="round" stroke-linejoin="round"/>
<path d="M43.1671 25.3929L44.134 28.9301" stroke="#FE8B6F" stroke-width="4" stroke-miterlimit="22.926" stroke-linecap="round" stroke-linejoin="round"/>
<path d="M25.864 42.3545L29.4726 43.3024" stroke="#FE8B6F" stroke-width="4" stroke-miterlimit="22.926" stroke-linecap="round" stroke-linejoin="round"/>
<path d="M25.864 54.7711L29.4726 53.8231" stroke="#FE8B6F" stroke-width="4" stroke-miterlimit="22.926" stroke-linecap="round" stroke-linejoin="round"/>
<path d="M43.1671 71.7325L44.134 68.1951" stroke="#FE8B6F" stroke-width="4" stroke-miterlimit="22.926" stroke-linecap="round" stroke-linejoin="round"/>
<path d="M55.8338 71.7325L54.8667 68.1951" stroke="#FE8B6F" stroke-width="4" stroke-miterlimit="22.926" stroke-linecap="round" stroke-linejoin="round"/>
<path d="M73.1368 54.7711L69.5282 53.8231" stroke="#FE8B6F" stroke-width="4" stroke-miterlimit="22.926" stroke-linecap="round" stroke-linejoin="round"/>
<path d="M73.1368 42.3545L69.5282 43.3024" stroke="#FE8B6F" stroke-width="4" stroke-miterlimit="22.926" stroke-linecap="round" stroke-linejoin="round"/>
<path d="M26.4362 25.9537L34.839 34.1906" stroke="#FE8B6F" stroke-width="4" stroke-miterlimit="22.926" stroke-linecap="round" stroke-linejoin="round"/>
<path d="M26.4362 71.1718L34.839 62.9349" stroke="#FE8B6F" stroke-width="4" stroke-miterlimit="22.926" stroke-linecap="round" stroke-linejoin="round"/>
<path d="M72.5646 71.1718L64.1617 62.9349" stroke="#FE8B6F" stroke-width="4" stroke-miterlimit="22.926" stroke-linecap="round" stroke-linejoin="round"/>
<path d="M92.1655 19.6752L95.8305 23.2679C97.4433 24.849 97.3363 27.3376 95.8305 29.0167L82.3538 44.0436M54.1105 16.3578L69.4398 3.14706C71.1529 1.67085 73.6918 1.56617 75.3045 3.14706L78.9704 6.74054" stroke="#FE8B6F" stroke-width="4" stroke-miterlimit="22.926" stroke-linecap="round" stroke-linejoin="round"/>
<path d="M44.8902 80.7678L29.5608 93.9786C27.8477 95.4548 25.309 95.5594 23.6963 93.9786L3.17028 73.8577C1.55736 72.2768 1.66435 69.788 3.17028 68.1089L16.647 53.0822" stroke="#FE8B6F" stroke-width="4" stroke-miterlimit="22.926" stroke-linecap="round" stroke-linejoin="round"/>
<path d="M77.3226 83.2729L80.9804 80.2994C81.6478 79.7569 82.1212 79.4856 82.6756 79.4856C83.2301 79.4856 83.7034 79.7569 84.3709 80.2994L88.0286 83.2729C88.6934 83.8134 88.896 84.3648 88.896 85.1951V100.429C88.896 101.294 88.1758 102 87.2926 102H78.0585C77.1754 102 76.4553 101.294 76.4553 100.429V85.1951C76.4553 84.3648 76.6579 83.8134 77.3226 83.2729Z" stroke="#FE8B6F" stroke-width="4" stroke-miterlimit="22.926" stroke-linecap="round" stroke-linejoin="round"/>
<path d="M82.6754 83.238V48.5625" stroke="#FE8B6F" stroke-width="4" stroke-miterlimit="22.926" stroke-linecap="round" stroke-linejoin="round"/>
<path d="M85.5677 13.2073H85.5694" stroke="#FE8B6F" stroke-width="4" stroke-miterlimit="2.613" stroke-linecap="round" stroke-linejoin="round"/>
<path d="M17.7279 39.18H17.7293" stroke="#FE8B6F" stroke-width="4" stroke-miterlimit="2.613" stroke-linecap="round" stroke-linejoin="round"/>
</svg>
