<svg width="104" height="104" viewBox="0 0 104 104" fill="none" xmlns="http://www.w3.org/2000/svg">
<path d="M23.276 36.0856C16.3502 48.5716 18.1869 64.6148 28.7859 75.2139C41.6066 88.0346 62.3931 88.0346 75.2138 75.2139C88.0345 62.3931 88.0345 41.6067 75.2138 28.786C64.6148 18.1869 48.5716 16.3503 36.0859 23.2759" stroke="#FE8B6F" stroke-width="4" stroke-miterlimit="10" stroke-linecap="round" stroke-linejoin="round"/>
<path d="M75.7099 52C75.7099 38.9053 65.0945 28.2899 51.9998 28.2899C38.905 28.2899 28.2896 38.9053 28.2896 52C28.2896 65.0947 38.905 75.7101 51.9998 75.7101C65.0945 75.7101 75.7099 65.0947 75.7099 52Z" stroke="#FE8B6F" stroke-width="4" stroke-miterlimit="10" stroke-linecap="round" stroke-linejoin="round"/>
<path d="M51.9998 39.233V52H61.119" stroke="#FE8B6F" stroke-width="4" stroke-miterlimit="10" stroke-linecap="round" stroke-linejoin="round"/>
<path d="M79.8424 69.4845L84.6113 74.2534C85.5387 75.1808 85.5387 76.6847 84.6113 77.6123L77.6528 84.5706C76.7253 85.4983 75.2215 85.4983 74.294 84.5706L69.5251 79.8017" stroke="#FE8B6F" stroke-width="4" stroke-miterlimit="10" stroke-linecap="round" stroke-linejoin="round"/>
<path d="M44.1212 84.3824L27.8391 100.664C26.0584 102.445 23.1714 102.445 21.3907 100.664L3.33551 82.6091C1.55483 80.8286 1.55483 77.9414 3.33551 76.1609L19.6176 59.8788" stroke="#FE8B6F" stroke-width="4" stroke-miterlimit="10" stroke-linecap="round" stroke-linejoin="round"/>
<path d="M84.3822 44.1212L100.664 27.8391C102.445 26.0584 102.445 23.1714 100.664 21.3907L82.6089 3.33551C80.8284 1.55483 77.9412 1.55483 76.1607 3.33551L59.8787 19.6176" stroke="#FE8B6F" stroke-width="4" stroke-miterlimit="10" stroke-linecap="round" stroke-linejoin="round"/>
</svg>
