<svg width="95" height="100" viewBox="0 0 95 100" fill="none" xmlns="http://www.w3.org/2000/svg">
<rect x="45" width="50" height="50" rx="15" fill="#FE8B6F" fill-opacity="0.2"/>
<path d="M94.4103 35.9238C94.032 35.5589 93.5207 35.3533 92.9873 35.3516H84.2656C82.1194 29.7145 78.7254 24.5451 74.2157 20.1689C72.9334 18.9241 71.5732 17.7572 70.143 16.6746V1.95312C70.143 0.874609 69.2419 0 68.1303 0H18.8189C17.7072 0 16.8061 0.874609 16.8061 1.95312V16.6746C15.3759 17.7572 14.0158 18.9241 12.7334 20.1689C4.52216 28.1373 0 38.7314 0 50C0 61.2686 4.52216 71.8629 12.7334 79.8311C14.0158 81.0759 15.3759 82.2429 16.8061 83.3254V98.0469C16.8061 99.1254 17.7072 100 18.8189 100H68.1303C69.2419 100 70.143 99.1254 70.143 98.0469V83.3254C71.5733 82.2429 72.9334 81.0759 74.2157 79.8311C78.7254 75.4549 82.1194 70.2854 84.2656 64.6484H92.9873C93.5166 64.6484 94.0359 64.4395 94.4103 64.076C94.7864 63.709 94.9983 63.2129 95 62.6953V58.7891C95 57.7129 94.0963 56.8359 92.9873 56.8359C91.8783 56.8359 90.9746 57.7129 90.9746 58.7891V60.7422H85.5318C86.4651 57.2781 86.9492 53.6754 86.9492 50C86.9492 46.3246 86.4651 42.7221 85.5318 39.2578H90.9746V41.2109C90.9746 42.2871 91.8783 43.1641 92.9873 43.1641C94.0963 43.1641 95 42.2871 95 41.2109V37.3047C95 36.791 94.7846 36.2871 94.4103 35.9238ZM66.1176 13.9705C64.516 13.0176 62.8517 12.1676 61.1355 11.426C61.7089 11.0818 62.0922 10.4678 62.0922 9.76562V3.90625H66.1176V13.9705ZM58.0667 3.90625V7.8125H28.8824V3.90625H58.0667ZM20.8316 3.90625H24.857V9.76562C24.857 10.468 25.2402 11.0818 25.8136 11.426C24.0974 12.1676 22.4331 13.0176 20.8316 13.9705V3.90625ZM20.8316 86.0295C22.4332 86.9824 24.0974 87.8324 25.8136 88.574C25.2402 88.9182 24.857 89.5322 24.857 90.2344V96.0938H20.8316V86.0295ZM28.8824 96.0938V92.1875H58.0667V96.0938H28.8824ZM66.1176 96.0938H62.0922V90.2344C62.0922 89.532 61.7089 88.9182 61.1355 88.574C62.8517 87.8324 64.516 86.9824 66.1176 86.0295V96.0938ZM43.4746 88.2812C21.7222 88.2812 4.02542 71.1084 4.02542 50C4.02542 28.8916 21.7222 11.7188 43.4746 11.7188C65.227 11.7188 82.9237 28.8916 82.9237 50C82.9237 71.1084 65.227 88.2812 43.4746 88.2812Z" fill="#FE8B6F"/>
<path d="M92.9873 51.9531C94.0989 51.9531 95 51.0787 95 50C95 48.9213 94.0989 48.0469 92.9873 48.0469C91.8757 48.0469 90.9746 48.9213 90.9746 50C90.9746 51.0787 91.8757 51.9531 92.9873 51.9531Z" fill="#FE8B6F"/>
<path d="M43.4746 23.4374C28.3811 23.4374 16.1017 35.3535 16.1017 49.9999C16.1017 64.6464 28.3811 76.5624 43.4746 76.5624C58.5681 76.5624 70.8475 64.6464 70.8475 49.9999C70.8475 35.3535 58.5681 23.4374 43.4746 23.4374ZM43.4746 28.1529L45.66 30.2734L43.4746 32.3939L41.2892 30.2734L43.4746 28.1529ZM43.4746 71.847L41.2892 69.7265L43.4746 67.606L45.66 69.7265L43.4746 71.847ZM48.9949 72.0148L49.9298 71.1076C50.7157 70.3449 50.7157 69.1082 49.9298 68.3453L44.898 63.4624C44.112 62.6999 42.8376 62.6999 42.0514 63.4624L37.0196 68.3453C36.2337 69.108 36.2337 70.3447 37.0196 71.1076L37.9545 72.0148C29.507 70.0199 22.8441 63.5542 20.7883 55.3568L21.7232 56.264C22.1163 56.6453 22.6313 56.8361 23.1464 56.8361C23.6615 56.8361 24.1767 56.6453 24.5696 56.264L29.6014 51.3812C30.3873 50.6185 30.3873 49.3818 29.6014 48.6189L24.5696 43.7361C23.7836 42.9736 22.5092 42.9736 21.723 43.7361L20.7881 44.6433C22.8439 36.4458 29.5068 29.9802 37.9543 27.9853L37.0194 28.8925C36.2334 29.6552 36.2334 30.8919 37.0194 31.6548L42.0512 36.5376C42.4443 36.9189 42.9593 37.1097 43.4744 37.1097C43.9894 37.1097 44.5047 36.9189 44.8976 36.5376L49.9294 31.6548C50.7153 30.8921 50.7153 29.6554 49.9294 28.8925L48.9944 27.9853C57.442 29.9802 64.1049 36.4458 66.1607 44.6433L65.2258 43.7361C64.4398 42.9736 63.1654 42.9736 62.3792 43.7361L57.3474 48.6189C56.5614 49.3816 56.5614 50.6183 57.3474 51.3812L62.3792 56.264C62.7723 56.6453 63.2873 56.8361 63.8024 56.8361C64.3174 56.8361 64.8327 56.6453 65.2256 56.264L66.1605 55.3568C64.1053 63.5542 57.4424 70.0199 48.9949 72.0148ZM20.9608 49.9999L23.1462 47.8794L25.3316 49.9999L23.1462 52.1205L20.9608 49.9999ZM65.9884 49.9999L63.803 52.1205L61.6176 49.9999L63.803 47.8794L65.9884 49.9999ZM49.7563 20.1406C50.2794 20.2433 50.8231 20.1403 51.268 19.8542C51.713 19.5682 52.0227 19.1225 52.1292 18.615C52.3506 17.5583 51.6462 16.5273 50.5573 16.3122C49.4664 16.0974 48.4057 16.781 48.1843 17.8378C47.9629 18.8947 48.6674 19.9257 49.7563 20.1406ZM24.1284 25.5173C24.533 25.5173 24.9395 25.4001 25.2938 25.156C26.1995 24.529 26.4108 23.3103 25.7667 22.4314C25.1227 21.5525 23.8647 21.3474 22.959 21.9724C22.0533 22.5974 21.842 23.816 22.486 24.6949C22.6718 24.9497 22.918 25.1574 23.2038 25.3005C23.4897 25.4436 23.8068 25.518 24.1284 25.5173ZM57.9279 22.9433C58.2136 23.0884 58.5313 23.1641 58.8537 23.164C59.5823 23.164 60.2848 22.7812 60.643 22.1113C61.1542 21.1542 60.7698 19.9746 59.7836 19.4765C58.7974 18.9804 57.5817 19.3535 57.0704 20.3107C56.5572 21.2675 56.9416 22.4472 57.9279 22.9433ZM32.3101 21.3867C32.5335 21.3867 32.7609 21.3496 32.9823 21.2734C33.4856 21.1002 33.8974 20.7401 34.1272 20.2724C34.3571 19.8047 34.3861 19.2676 34.2081 18.779C33.8357 17.7636 32.6844 17.2302 31.6378 17.5915C30.5892 17.9511 30.0417 19.0683 30.4141 20.0839C30.7059 20.8847 31.4828 21.3867 32.3101 21.3867ZM41.1479 19.6091C41.1942 19.6091 41.2405 19.6072 41.2868 19.6035C42.3958 19.5292 43.2331 18.5976 43.1566 17.5214C43.0801 16.4453 42.12 15.6328 41.011 15.707C39.902 15.7812 39.0647 16.7126 39.1412 17.789C39.2137 18.8201 40.0993 19.6091 41.1479 19.6091ZM76.1691 56.988C75.1003 56.6931 73.9873 57.2966 73.6834 58.3339C73.538 58.8325 73.6026 59.3667 73.863 59.8191C74.1235 60.2714 74.5584 60.6049 75.0722 60.746C75.2553 60.7968 75.4405 60.8224 75.6216 60.8224C76.4992 60.8224 77.3042 60.2597 77.5558 59.4005C77.8598 58.363 77.2398 57.2831 76.1691 56.988ZM76.8796 47.9648C75.7686 47.9687 74.8709 48.8437 74.8729 49.9236V49.9999C74.8729 51.0781 75.7746 51.9531 76.8856 51.9531C77.9966 51.9531 78.8983 51.0781 78.8983 49.9999V49.914C78.8943 48.8337 77.9926 47.9609 76.8796 47.9648ZM73.7136 41.7675C73.8319 42.1776 74.0851 42.5389 74.4347 42.7963C74.7842 43.0537 75.211 43.1931 75.6498 43.1933C75.8309 43.1933 76.0121 43.1699 76.1952 43.121C77.264 42.8302 77.8899 41.754 77.5901 40.715C77.2902 39.6759 76.1791 39.0705 75.1104 39.3595C74.0396 39.6503 73.4137 40.7285 73.7136 41.7675ZM66.2323 28.2148C66.7717 28.2148 67.3091 28.0058 67.7056 27.5917C67.8857 27.4041 68.026 27.1838 68.1183 26.9434C68.2106 26.7031 68.2532 26.4475 68.2437 26.1912C68.2342 25.9349 68.1727 25.6829 68.0627 25.4497C67.9528 25.2165 67.7966 25.0066 67.603 24.832C66.7898 24.0976 65.5178 24.1425 64.759 24.9316C64.0022 25.7206 64.0465 26.957 64.8617 27.6915C65.2337 28.0282 65.7236 28.2152 66.2323 28.2148ZM70.2396 34.0605C70.3778 34.2794 70.5591 34.4696 70.7732 34.6203C70.9873 34.771 71.23 34.8793 71.4873 34.9388C71.7446 34.9983 72.0114 35.008 72.2726 34.9673C72.5337 34.9265 72.784 34.8361 73.0091 34.7013C73.9551 34.1369 74.251 32.9337 73.6693 32.0158C73.0856 31.0958 71.8458 30.8087 70.8998 31.3751C69.9518 31.9398 69.658 33.1427 70.2396 34.0626V34.0605ZM12.3661 54.1581C12.2152 53.0896 11.2007 52.3396 10.0998 52.4861C8.99884 52.6326 8.22797 53.6169 8.37691 54.6855C8.44935 55.1986 8.72871 55.6629 9.15364 55.9764C9.57857 56.2898 10.1143 56.4268 10.6432 56.3572C11.7442 56.2109 12.5151 55.2265 12.3661 54.1581ZM49.8348 79.8437C48.7459 80.0605 48.0434 81.0937 48.2689 82.1503C48.4641 83.0742 49.3034 83.7109 50.2373 83.7109C50.3722 83.7109 50.509 83.6972 50.6459 83.6699C51.7348 83.4531 52.4352 82.4201 52.2118 81.3632C51.9863 80.3066 50.9236 79.6267 49.8348 79.8437ZM32.8797 78.6912C31.8331 78.3281 30.6818 78.8554 30.3074 79.8708C29.931 80.8865 30.4765 82.0037 31.5231 82.3689C31.7465 82.447 31.976 82.4822 32.2014 82.4822C33.0266 82.4822 33.8015 81.9861 34.0953 81.1892C34.4717 80.1738 33.9263 79.0546 32.8797 78.6912ZM57.8292 77.1052C56.841 77.5994 56.4526 78.7773 56.9618 79.7363C57.1316 80.0551 57.3886 80.3225 57.7045 80.5092C58.0204 80.6959 58.3832 80.7947 58.7531 80.7949C59.063 80.7949 59.379 80.7246 59.6729 80.5781C60.6611 80.0839 61.0496 78.9062 60.5404 77.9472C60.0312 76.9882 58.8175 76.6113 57.8292 77.1052ZM41.3673 80.4001V80.4023C40.2583 80.33 39.3002 81.1445 39.2257 82.2206C39.1533 83.2968 39.9926 84.2267 41.1016 84.2988C41.1459 84.3029 41.1922 84.3029 41.2365 84.3029C42.2871 84.3029 43.1727 83.5119 43.2431 82.4787C43.3156 81.4021 42.4763 80.4726 41.3673 80.4001ZM64.918 72.2558C64.1069 72.9939 64.0626 74.2285 64.8234 75.0175C65.0038 75.205 65.2205 75.3562 65.4611 75.4623C65.7018 75.5684 65.9616 75.6274 66.2258 75.636C66.49 75.6445 66.7533 75.6024 67.0006 75.512C67.248 75.4216 67.4746 75.2848 67.6674 75.1093C68.4785 74.373 68.5228 73.1367 67.762 72.3496C67.0032 71.5605 65.7291 71.5195 64.918 72.2558ZM73.0474 65.2265C72.0994 64.664 70.8616 64.9531 70.2799 65.873C69.7002 66.7929 70.0001 67.996 70.9481 68.5585C71.2762 68.7538 71.6385 68.8458 71.9967 68.8458C72.673 68.8458 73.3352 68.5138 73.7156 67.9123C74.2952 66.9921 73.9974 65.789 73.0474 65.2265ZM10.0938 47.5976C10.1843 47.6093 10.2729 47.6152 10.3614 47.6152C11.3557 47.6152 12.2192 46.9023 12.356 45.9197C12.503 44.8513 11.7281 43.8689 10.6271 43.7265C9.52416 43.582 8.51177 44.3339 8.36484 45.4023C8.21791 46.4724 8.99079 47.455 10.0938 47.5976ZM25.3582 74.8886C24.4504 74.2636 23.1945 74.4726 22.5524 75.3535C21.9104 76.2343 22.1237 77.4531 23.0315 78.0761C23.4671 78.3755 24.0074 78.4947 24.5335 78.4076C25.0597 78.3204 25.5286 78.0339 25.8372 77.6113C26.4792 76.7302 26.2639 75.5117 25.3582 74.8886ZM13.6462 35.246C12.6278 34.8144 11.4423 35.2673 10.9955 36.2558H10.9975C10.5506 37.2441 11.0176 38.3945 12.036 38.8261C12.2977 38.9372 12.5714 38.9902 12.8391 38.9902C13.616 38.9902 14.3547 38.5527 14.6848 37.8183C15.1296 36.8298 14.6646 35.6777 13.6462 35.246ZM11.9958 61.0664C10.9753 61.4939 10.5064 62.6445 10.9471 63.6345C11.2752 64.371 12.0179 64.8122 12.7948 64.8122C13.0625 64.8122 13.3342 64.7615 13.5939 64.6521C14.6143 64.2224 15.0833 63.074 14.6425 62.0839C14.2017 61.0937 13.0162 60.6386 11.9958 61.0664ZM16.2708 31.0722C16.6294 31.3546 17.077 31.5091 17.5388 31.5097C18.1245 31.5097 18.7041 31.2634 19.1027 30.789C19.8031 29.9511 19.6743 28.7226 18.8108 28.041C17.9494 27.3615 16.6814 27.4863 15.9789 28.3242C15.2785 29.1601 15.4093 30.3906 16.2708 31.0722ZM16.3191 68.9941C15.4596 69.6757 15.3308 70.9062 16.0353 71.7419C16.2025 71.9405 16.4085 72.1052 16.6414 72.2265C16.8742 72.3478 17.1294 72.4234 17.3924 72.449C17.6554 72.4746 17.921 72.4496 18.1741 72.3755C18.4271 72.3015 18.6626 72.1798 18.8672 72.0173C19.0719 71.8551 19.2417 71.6553 19.3668 71.4294C19.4919 71.2034 19.5698 70.9557 19.5962 70.7005C19.6226 70.4453 19.5968 70.1875 19.5204 69.942C19.444 69.6964 19.3185 69.4679 19.151 69.2695C18.4485 68.4335 17.1805 68.3105 16.3191 68.9941Z" fill="#FE8B6F"/>
<path d="M50.8621 39.6801L46.0233 44.6898C45.2257 44.3275 44.3556 44.1399 43.4748 44.1404C42.5743 44.1395 41.6852 44.3352 40.8732 44.7131L33.6268 37.6812C32.8409 36.9187 31.5664 36.9187 30.7805 37.6812C29.9945 38.4439 29.9945 39.6807 30.7805 40.4436L38.0268 47.4752C37.6373 48.2631 37.4355 49.1261 37.4365 50C37.4365 53.2309 40.1452 55.8594 43.4746 55.8594C46.8041 55.8594 49.5128 53.2309 49.5128 50C49.5128 49.077 49.291 48.2035 48.8975 47.4262L53.799 42.3514C54.5592 41.5643 54.518 40.3283 53.7069 39.5906C52.8957 38.8529 51.6221 38.893 50.8621 39.6801ZM43.4746 51.9531C42.3648 51.9531 41.4619 51.077 41.4619 50C41.4619 48.923 42.3648 48.0469 43.4746 48.0469C44.5844 48.0469 45.4873 48.923 45.4873 50C45.4873 51.077 44.5844 51.9531 43.4746 51.9531Z" fill="#FE8B6F"/>
</svg>
